<?xml version="1.0" encoding="UTF-8" standalone="no"?><!DOCTYPE svg PUBLIC "-//W3C//DTD SVG 1.1//EN" "http://www.w3.org/Graphics/SVG/1.1/DTD/svg11.dtd"><svg width="100%" height="100%" viewBox="0 0 31 19" version="1.1" xmlns="http://www.w3.org/2000/svg" xmlns:xlink="http://www.w3.org/1999/xlink" xml:space="preserve" xmlns:serif="http://www.serif.com/" style="fill-rule:evenodd;clip-rule:evenodd;stroke-linejoin:round;stroke-miterlimit:2;"><g><path d="M15.975,9.517l-15.975,0l7.987,4.603l7.988,-4.603Zm-10.979,0.838l5.983,0l-2.992,2.657l-2.991,-2.657Z" style="fill:white;fill-rule:nonzero;"/><path d="M14.629,1.677l-0,-1.677c-4.26,-0 -7.726,3.553 -7.726,7.92l1.636,-0c-0,-3.442 2.731,-6.243 6.09,-6.243" style="fill:white;fill-rule:nonzero;"/><path d="M29.049,5.727l-14.539,0c-0.656,0 -1.187,0.545 -1.187,1.217l-0,0.896l1.047,0l-0,-0.896c-0,-0.079 0.062,-0.144 0.14,-0.144l9.503,0l-0,8.066l-2.318,2.202l-3.542,0l-0,-0.58c-0,-0.672 -0.531,-1.218 -1.187,-1.218l-2.596,0l-0,-2.904l-1.047,0.604l-0,3.955c-0,0.672 0.531,1.217 1.187,1.217l14.539,0c0.656,0 1.187,-0.545 1.187,-1.217l-0,-9.981c-0,-0.672 -0.531,-1.217 -1.187,-1.217" style="fill:white;fill-rule:nonzero;"/></g></svg>