<?xml version="1.0" encoding="UTF-8" standalone="no"?><!DOCTYPE svg PUBLIC "-//W3C//DTD SVG 1.1//EN" "http://www.w3.org/Graphics/SVG/1.1/DTD/svg11.dtd"><svg width="100%" height="100%" viewBox="0 0 18 23" version="1.1" xmlns="http://www.w3.org/2000/svg" xmlns:xlink="http://www.w3.org/1999/xlink" xml:space="preserve" xmlns:serif="http://www.serif.com/" style="fill-rule:evenodd;clip-rule:evenodd;stroke-linejoin:round;stroke-miterlimit:2;"><g><path d="M11.033,16.245l-7.845,-0l-2.143,-2.395l-0,-3.661l0.564,-0c0.655,-0 1.184,-0.549 1.184,-1.227l-0,-2.684l3.372,-0l-0,-1.081l-4.98,-0c-0.655,-0 -1.185,0.549 -1.185,1.227l-0,15.026c-0,0.678 0.53,1.227 1.185,1.227l9.708,-0c0.655,-0 1.184,-0.549 1.184,-1.227l-0,-10.232l-1.044,-0l-0,5.027Z" style="fill:white;fill-rule:nonzero;"/><path d="M16.193,5.433l-2.704,0l-0,2.749l-1.624,-0l-0,-2.749l-2.679,0l-0,-1.761l2.679,0l-0,-2.827l1.624,0l-0,2.827l2.704,0l-0,1.761Zm-1.017,-2.605l-0.871,-2.828l-3.255,-0l-0,2.828l-2.68,0l-0,3.45l1.812,-0l0.868,2.743l-0,0.007l3.255,-0l-0,-2.75l2.704,-0l-0,-3.45l-1.833,-0Z" style="fill:white;fill-rule:nonzero;"/></g></svg>