<?xml version="1.0" encoding="UTF-8" standalone="no"?><!DOCTYPE svg PUBLIC "-//W3C//DTD SVG 1.1//EN" "http://www.w3.org/Graphics/SVG/1.1/DTD/svg11.dtd"><svg width="100%" height="100%" viewBox="0 0 26 23" version="1.1" xmlns="http://www.w3.org/2000/svg" xmlns:xlink="http://www.w3.org/1999/xlink" xml:space="preserve" xmlns:serif="http://www.serif.com/" style="fill-rule:evenodd;clip-rule:evenodd;stroke-linejoin:round;stroke-miterlimit:2;"><g><path d="M20.823,10.704c-1.724,-0.459 -4.339,-0.891 -7.004,-0.339c-0.231,0.048 -0.38,0.275 -0.332,0.507c0.048,0.231 0.273,0.376 0.507,0.333c2.501,-0.518 4.974,-0.108 6.609,0.327c0.037,0.009 0.073,0.015 0.111,0.015c0.189,0 0.362,-0.127 0.413,-0.319c0.061,-0.228 -0.075,-0.463 -0.304,-0.524" style="fill:white;fill-rule:nonzero;"/><path d="M21.109,13.282c-0.923,-0.245 -4.175,-0.997 -7.289,-0.352c-0.231,0.048 -0.38,0.275 -0.332,0.507c0.048,0.23 0.273,0.377 0.506,0.332c2.928,-0.606 6.018,0.108 6.895,0.341c0.037,0.009 0.075,0.015 0.111,0.015c0.189,0 0.362,-0.127 0.413,-0.319c0.061,-0.228 -0.075,-0.463 -0.304,-0.524" style="fill:white;fill-rule:nonzero;"/><path d="M13.82,15.507c-0.232,0.048 -0.38,0.275 -0.332,0.507c0.047,0.23 0.273,0.384 0.507,0.332c2.39,-0.496 5.308,-0.122 7.08,0.35c0.036,0.01 0.073,0.014 0.11,0.014c0.188,-0 0.363,-0.126 0.414,-0.318c0.06,-0.229 -0.076,-0.464 -0.304,-0.525c-1.863,-0.493 -4.936,-0.887 -7.475,-0.36" style="fill:white;fill-rule:nonzero;"/><path d="M24.443,5.508l-2.84,0l-0,2.788l-1.705,0l-0,-2.788l-2.816,0l-0,-1.785l2.816,0l-0,-2.867l1.705,0l-0,2.867l2.84,0l-0,1.785Zm-1.068,-2.641l-0.916,-2.867l-3.419,0l-0,2.867l-2.814,0l-0,3.498l1.902,0l0.912,2.78l-0,0.007l3.419,0l-0,-2.787l2.841,0l-0,-3.498l-1.925,0Z" style="fill:white;fill-rule:nonzero;"/><path d="M3.01,7.625c0.307,-0.085 0.868,-0.228 1.603,-0.363l-0.296,5.971l2.348,-0l0.142,-6.257c1.516,-0.12 3.31,-0.092 5.136,0.306l0.02,12.412c-1.204,-0.426 -4.221,-0.994 -9.973,0.567l1.02,-12.636Zm19.976,13.577l0.175,0.255c-2.024,-0.464 -6.455,-1.352 -9.823,-1.147c1.072,-0.393 3.756,-0.801 9.648,0.892m-21.203,0.002c4.766,-1.354 7.615,-1.215 9.082,-0.918c-3.284,-0.081 -7.344,0.735 -9.258,1.171l0.176,-0.253Zm21.778,-13.236l-0.246,-0.03l0,2.071l-1.364,-0l0.828,10.249c-6.04,-1.673 -8.802,-1.184 -9.96,-0.674l-0.02,-12.334c0.854,-0.288 1.722,-0.449 2.568,-0.518l0,-0.863c-0.986,0.077 -2.005,0.263 -3.012,0.623c-4.922,-1.154 -9.561,0.294 -9.872,0.396c-0.045,0.013 -0.089,0.034 -0.126,0.062l-0.002,-0c-0.017,0.014 -0.036,0.028 -0.052,0.044l0,0.002c-0.034,0.033 -0.062,0.073 -0.084,0.117l-0.392,0.78l-0.62,0.075c-0.189,0.022 -0.34,0.212 -0.354,0.446l-0.852,13.742c-0.019,0.288 0.172,0.532 0.406,0.521l10.676,-0.447l0,-0.002c0.186,0.002 0.36,-0.114 0.416,-0.3c0.046,-0.152 0.172,-0.459 0.36,-0.72c0.155,0.014 0.314,0.026 0.46,0.048c0.024,0.002 0.047,-0.004 0.071,-0.006c0.02,0.002 0.039,0.007 0.06,0.006c0.147,-0.022 0.305,-0.034 0.46,-0.048c0.187,0.261 0.315,0.568 0.36,0.72c0.056,0.185 0.227,0.305 0.411,0.305c0.005,-0 0.012,-0.003 0.017,-0.003l10.664,0.447c0.235,0.011 0.425,-0.233 0.407,-0.521l-0.854,-13.742c-0.014,-0.234 -0.164,-0.424 -0.354,-0.446" style="fill:white;fill-rule:nonzero;"/></g></svg>