<?xml version="1.0" encoding="UTF-8" standalone="no"?><!DOCTYPE svg PUBLIC "-//W3C//DTD SVG 1.1//EN" "http://www.w3.org/Graphics/SVG/1.1/DTD/svg11.dtd"><svg width="100%" height="100%" viewBox="0 0 16 23" version="1.1" xmlns="http://www.w3.org/2000/svg" xmlns:xlink="http://www.w3.org/1999/xlink" xml:space="preserve" xmlns:serif="http://www.serif.com/" style="fill-rule:evenodd;clip-rule:evenodd;stroke-linejoin:round;stroke-miterlimit:2;"><g><path d="M7.557,-0l-7.557,4.302l15.118,-0l-7.558,-4.302l-0.003,-0Zm0.002,1.037l2.83,2.482l-5.661,-0l2.831,-2.482Z" style="fill:white;fill-rule:nonzero;"/><path d="M4.566,15.29l5.649,0c0.259,0 0.47,-0.215 0.47,-0.479c-0,-0.264 -0.211,-0.478 -0.47,-0.478l-5.649,0c-0.259,0 -0.469,0.214 -0.469,0.478c-0,0.264 0.21,0.479 0.469,0.479" style="fill:white;fill-rule:nonzero;"/><path d="M4.566,12.939l5.649,0c0.259,0 0.47,-0.215 0.47,-0.479c-0,-0.264 -0.211,-0.478 -0.47,-0.478l-5.649,0c-0.259,0 -0.469,0.214 -0.469,0.478c-0,0.264 0.21,0.479 0.469,0.479" style="fill:white;fill-rule:nonzero;"/><path d="M4.566,10.236l5.649,-0c0.259,-0 0.47,-0.215 0.47,-0.479c-0,-0.264 -0.211,-0.478 -0.47,-0.478l-5.649,-0c-0.259,-0 -0.469,0.214 -0.469,0.478c-0,0.264 0.21,0.479 0.469,0.479" style="fill:white;fill-rule:nonzero;"/><path d="M11.428,21.719l-6.765,0l-0.584,-2.128l0.074,-0.073l2.463,-0.418c0.161,0.04 0.331,0.014 0.449,-0.113l0.756,-0.812l0.236,-0.033l2.842,0.436l0.112,0.052c0.132,0.061 0.282,0.057 0.41,-0.011l0.303,-0.16l0.152,2.283l-0.448,0.977Zm-8.288,-12.133c0.459,-1.063 1.04,-2.176 1.305,-2.787l7.019,0.691l0.733,4.061l-0.37,5.776l-0.634,0.335l-1.406,-0.658c-0.082,-0.036 -0.171,-0.05 -0.259,-0.037l-1.999,0.283c-0.105,0.014 -0.201,0.065 -0.274,0.144l-0.631,0.677l-1.251,-0.635c-0.18,-0.088 -0.39,-0.056 -0.533,0.083l-1.307,1.281l-0.609,-0.526l0.216,-8.688Zm9.604,8.074l0.393,-6.105c0.003,-0.04 -0,-0.08 -0.008,-0.119l-0.809,-4.474c-0.037,-0.21 -0.207,-0.37 -0.415,-0.39l-9.104,-0.897c-0.128,-0.012 -0.258,0.031 -0.354,0.119c-0.099,0.088 -0.155,0.213 -0.159,0.346l-0.307,12.339c-0.004,0.144 0.058,0.283 0.166,0.377l0.993,0.859l0.716,2.612c0.057,0.207 0.241,0.349 0.452,0.349l7.419,0c0.181,0 0.348,-0.108 0.424,-0.276l0.625,-1.365c0.035,-0.075 0.049,-0.155 0.044,-0.236l-0.192,-2.871c0.063,-0.077 0.109,-0.165 0.116,-0.268" style="fill:white;fill-rule:nonzero;"/></g></svg>