<?xml version="1.0" encoding="UTF-8" standalone="no"?><!DOCTYPE svg PUBLIC "-//W3C//DTD SVG 1.1//EN" "http://www.w3.org/Graphics/SVG/1.1/DTD/svg11.dtd"><svg width="100%" height="100%" viewBox="0 0 16 23" version="1.1" xmlns="http://www.w3.org/2000/svg" xmlns:xlink="http://www.w3.org/1999/xlink" xml:space="preserve" xmlns:serif="http://www.serif.com/" style="fill-rule:evenodd;clip-rule:evenodd;stroke-linejoin:round;stroke-miterlimit:2;"><g><path d="M12.298,1.136l-0,9.096l-7.444,-0l-2.033,-2.217l-0,-3.392l0.536,-0c0.62,-0 1.124,-0.508 1.124,-1.136l-0,-2.486l7.685,-0c0.072,-0 0.132,0.062 0.132,0.135m-9.344,15.052l9.212,-0c0.62,-0 1.123,-0.508 1.123,-1.136l-0,-13.916c-0,-0.628 -0.503,-1.136 -1.123,-1.136l-9.212,-0c-0.621,-0 -1.124,0.508 -1.124,1.136l-0,13.916c-0,0.628 0.503,1.136 1.124,1.136" style="fill:white;fill-rule:nonzero;"/><path d="M4.728,19.162l5.663,-0l-2.832,2.48l-2.831,-2.48Zm10.391,-0.783l-15.119,-0l7.559,4.298l7.56,-4.298Z" style="fill:white;fill-rule:nonzero;"/></g></svg>