<?xml version="1.0" encoding="UTF-8" standalone="no"?><!DOCTYPE svg PUBLIC "-//W3C//DTD SVG 1.1//EN" "http://www.w3.org/Graphics/SVG/1.1/DTD/svg11.dtd"><svg width="100%" height="100%" viewBox="0 0 18 18" version="1.1" xmlns="http://www.w3.org/2000/svg" xmlns:xlink="http://www.w3.org/1999/xlink" xml:space="preserve" xmlns:serif="http://www.serif.com/" style="fill-rule:evenodd;clip-rule:evenodd;stroke-linejoin:round;stroke-miterlimit:2;"><path d="M15.797,4.812c-0.321,1.606 -1.625,2.37 -3.188,2.482c-0.464,0.034 -1.93,0.032 -3.014,-0c-0.015,-0.822 -0.103,-1.548 -0.1,-2.408c0.003,-1.012 -0.112,-1.873 0.524,-2.741c0.554,-0.756 1.452,-1.248 2.385,-1.319c0.078,-0.006 0.155,-0.009 0.233,-0.009c2.064,-0.003 3.591,1.999 3.16,3.995m-8.365,7.735c-0.113,1.564 -1.012,2.929 -2.618,3.25c-1.997,0.431 -4,-1.094 -3.997,-3.159c0,-0.077 0.002,-0.154 0.009,-0.231c0.071,-0.934 0.563,-1.831 1.32,-2.385c0.868,-0.636 1.729,-0.521 2.741,-0.524c0.861,-0.002 1.623,0.007 2.446,0.022c0.044,0.979 0.132,2.563 0.099,3.027m5.063,-12.538c-1.365,-0.082 -2.831,0.432 -3.805,1.402c-0.695,0.69 -1.158,1.604 -1.322,2.568c-0.05,0.289 -0.212,2.828 -0.191,3.347c-0.218,-0.06 -2.911,-0.003 -3.197,0.046c-0.965,0.164 -1.878,0.627 -2.569,1.321c-0.97,0.974 -1.485,2.439 -1.403,3.804c0.116,1.838 1.318,3.512 3.057,4.189c0.588,0.23 1.23,0.346 1.878,0.318c0.794,-0.034 1.568,-0.271 2.248,-0.683c0.685,-0.416 1.142,-0.918 1.536,-1.616c0.43,-0.762 0.714,-1.606 0.834,-2.473c0.12,-0.861 0.034,-2.704 0.034,-2.718c0.012,-0 1.826,0.021 2.677,-0.01c0.875,-0.032 1.67,-0.35 2.432,-0.779c0.697,-0.394 1.2,-0.851 1.616,-1.537c0.413,-0.679 0.65,-1.452 0.684,-2.246c0.027,-0.648 -0.089,-1.29 -0.318,-1.878c-0.677,-1.738 -2.352,-2.939 -4.191,-3.055" style="fill:#403f41;fill-rule:nonzero;"/></svg>