<?xml version="1.0" encoding="UTF-8" standalone="no"?><!DOCTYPE svg PUBLIC "-//W3C//DTD SVG 1.1//EN" "http://www.w3.org/Graphics/SVG/1.1/DTD/svg11.dtd"><svg width="100%" height="100%" viewBox="0 0 10 10" version="1.1" xmlns="http://www.w3.org/2000/svg" xmlns:xlink="http://www.w3.org/1999/xlink" xml:space="preserve" xmlns:serif="http://www.serif.com/" style="fill-rule:evenodd;clip-rule:evenodd;stroke-linejoin:round;stroke-miterlimit:2;"><g><path d="M9.416,1.184l-9.033,0c-0.001,0.029 -0.004,0.056 -0.004,0.085c0,2.764 2.023,5.004 4.52,5.004c2.497,0 4.521,-2.24 4.521,-5.004c0,-0.029 -0.004,-0.056 -0.004,-0.085m-0.433,0.421c-0.154,2.371 -1.926,4.248 -4.084,4.248c-2.152,0 -3.921,-1.869 -4.082,-4.248l8.166,0Z" style="fill:white;fill-rule:nonzero;"/><path d="M6.107,6.102l-2.293,0c0,0.007 -0.001,0.014 -0.001,0.022c0,0.701 0.514,1.27 1.147,1.27c0.634,0 1.148,-0.569 1.148,-1.27c0,-0.008 -0.001,-0.015 -0.001,-0.022m-0.51,0.421c-0.121,0.268 -0.361,0.45 -0.637,0.45c-0.277,0 -0.518,-0.185 -0.639,-0.45l1.276,0Z" style="fill:white;fill-rule:nonzero;"/><path d="M9.697,-0l-9.472,-0c-0.124,-0 -0.225,0.1 -0.225,0.222l0,0.74c0,0.123 0.101,0.222 0.225,0.222l9.472,-0c0.123,-0 0.224,-0.099 0.224,-0.222l0,-0.74c0,-0.122 -0.101,-0.222 -0.224,-0.222m-0.201,0.763l-9.069,-0l0,-0.343l9.069,-0l0,0.343Z" style="fill:white;fill-rule:nonzero;"/><path d="M8.014,9.921l-6.107,0c-0.12,0 -0.218,-0.097 -0.218,-0.216l0,-0.143c0,-0.119 0.098,-0.216 0.218,-0.216l6.107,0c0.12,0 0.218,0.097 0.218,0.216l0,0.143c0,0.119 -0.098,0.216 -0.218,0.216" style="fill:white;fill-rule:nonzero;"/><path d="M5.786,6.935l-0.825,0.389l-0.825,-0.389c-0,-0 0.019,2.411 -1.843,2.411l5.335,-0c-1.862,-0 -1.842,-2.411 -1.842,-2.411m-0,-0l0.002,-0l-0.002,-0Zm-0.366,0.639c0.069,0.4 0.215,0.919 0.527,1.352l-1.973,-0c0.312,-0.433 0.459,-0.952 0.527,-1.352l0.276,0.13c0.058,0.028 0.121,0.041 0.184,0.041c0.062,-0 0.125,-0.013 0.184,-0.041l0.275,-0.13Z" style="fill:white;fill-rule:nonzero;"/><path d="M6.995,1.078c-0,-0 1.132,-0.393 1.499,-0.816c0.856,-0.061 1.285,-0 1.285,-0l-0,0.816l-2.784,-0Z" style="fill:white;fill-rule:nonzero;"/><path d="M8.169,1.184l1.084,0c-0,0 0.605,4.59 -5.303,4.847c2.583,-0.286 4.039,-1.559 4.219,-4.847" style="fill:white;fill-rule:nonzero;"/><path d="M4.854,7.394c-0,0 0.353,1.572 1.576,2.05c-0.17,-0.421 -0.935,-1.091 -1.01,-2.301c-0.19,0.094 -0.566,0.251 -0.566,0.251" style="fill:white;fill-rule:nonzero;"/><path d="M4.677,7.215c-0,0 0.607,-0.076 0.891,-1.113l0.11,0c-0,0 0.237,0.91 -1.001,1.113" style="fill:white;fill-rule:nonzero;"/></g></svg>