<?xml version="1.0" encoding="UTF-8" standalone="no"?><!DOCTYPE svg PUBLIC "-//W3C//DTD SVG 1.1//EN" "http://www.w3.org/Graphics/SVG/1.1/DTD/svg11.dtd"><svg width="100%" height="100%" viewBox="0 0 12 15" version="1.1" xmlns="http://www.w3.org/2000/svg" xmlns:xlink="http://www.w3.org/1999/xlink" xml:space="preserve" xmlns:serif="http://www.serif.com/" style="fill-rule:evenodd;clip-rule:evenodd;stroke-linejoin:round;stroke-miterlimit:2;"><g><path d="M1.192,5.744l-1.107,-0l-0,-2.335c-0,-0.485 0.394,-0.877 0.877,-0.877l1.107,-0l-0,2.335c-0,0.485 -0.392,0.877 -0.877,0.877" style="fill:#fff;fill-rule:nonzero;"/><path d="M0.391,7.948l1.969,2.125l6.131,-0l-0,4.148l-8.1,-0l-0,-6.273Z" style="fill:#fff;fill-rule:nonzero;"/><path d="M8.171,5.272l0,8.52c0,0.058 -0.046,0.104 -0.104,0.104l-7.19,-0c-0.057,-0 -0.104,-0.046 -0.104,-0.104l0,-10.74c0,-0.056 0.047,-0.103 0.104,-0.103l4.896,-0l0,-0.774l-4.896,-0c-0.485,-0 -0.877,0.394 -0.877,0.877l0,10.74c0,0.485 0.392,0.877 0.877,0.877l7.19,-0c0.485,-0 0.877,-0.392 0.877,-0.877l-0,-8.52l-0.773,-0Z" style="fill:#fff;fill-rule:nonzero;"/><path d="M7.364,0.025l1.403,1.403l1.429,-1.428l0.851,0.849l-1.429,1.43l1.416,1.416l-0.89,0.89l-1.417,-1.416l-1.389,1.389l-0.85,-0.85l1.39,-1.39l-1.404,-1.403l0.89,-0.89Z" style="fill:#fff;fill-rule:nonzero;"/></g></svg>