<?xml version="1.0" encoding="UTF-8" standalone="no"?><!DOCTYPE svg PUBLIC "-//W3C//DTD SVG 1.1//EN" "http://www.w3.org/Graphics/SVG/1.1/DTD/svg11.dtd"><svg width="100%" height="100%" viewBox="0 0 11 15" version="1.1" xmlns="http://www.w3.org/2000/svg" xmlns:xlink="http://www.w3.org/1999/xlink" xml:space="preserve" xmlns:serif="http://www.serif.com/" style="fill-rule:evenodd;clip-rule:evenodd;stroke-linejoin:round;stroke-miterlimit:2;"><g><path d="M2.347,8.016l5.126,0c0.235,0 0.425,-0.179 0.425,-0.399c-0,-0.22 -0.19,-0.399 -0.425,-0.399l-5.126,0c-0.235,0 -0.425,0.179 -0.425,0.399c-0,0.22 0.19,0.399 0.425,0.399" style="fill:#fff;fill-rule:nonzero;"/><path d="M2.347,6.057l5.126,-0c0.235,-0 0.425,-0.179 0.425,-0.399c-0,-0.22 -0.19,-0.399 -0.425,-0.399l-5.126,-0c-0.235,-0 -0.425,0.179 -0.425,0.399c-0,0.22 0.19,0.399 0.425,0.399" style="fill:#fff;fill-rule:nonzero;"/><path d="M2.347,3.803l5.126,0c0.235,0 0.425,-0.179 0.425,-0.399c-0,-0.22 -0.19,-0.399 -0.425,-0.399l-5.126,0c-0.235,0 -0.425,0.179 -0.425,0.399c-0,0.22 0.19,0.399 0.425,0.399" style="fill:#fff;fill-rule:nonzero;"/><path d="M8.572,13.376l-6.138,-0l-0.53,-1.774l0.067,-0.06l2.237,-0.349c0.145,0.033 0.299,0.01 0.405,-0.095l0.686,-0.676l0.212,-0.028l2.58,0.363l0.102,0.044c0.119,0.051 0.257,0.049 0.373,-0.009l0.275,-0.133l0.137,1.902l-0.406,0.815Zm-7.52,-10.114c0.416,-0.885 0.944,-1.814 1.184,-2.322l6.368,0.575l0.667,3.386l-0.338,4.814l-0.575,0.28l-1.275,-0.548c-0.073,-0.032 -0.156,-0.043 -0.235,-0.032l-1.813,0.235c-0.095,0.012 -0.184,0.055 -0.25,0.12l-0.572,0.565l-1.135,-0.529c-0.16,-0.076 -0.354,-0.047 -0.484,0.069l-1.186,1.068l-0.552,-0.439l0.196,-7.242Zm8.714,6.73l0.357,-5.089c0.003,-0.033 0,-0.066 -0.007,-0.098l-0.734,-3.73c-0.034,-0.175 -0.188,-0.308 -0.377,-0.325l-8.26,-0.748c-0.12,-0.01 -0.235,0.025 -0.323,0.099c-0.089,0.074 -0.14,0.178 -0.143,0.289l-0.279,10.285c-0.003,0.12 0.052,0.236 0.151,0.314l0.901,0.716l0.65,2.177c0.051,0.173 0.219,0.292 0.409,0.292l6.732,-0c0.165,-0 0.315,-0.089 0.385,-0.23l0.568,-1.139c0.03,-0.061 0.044,-0.128 0.039,-0.196l-0.174,-2.393c0.057,-0.064 0.1,-0.138 0.105,-0.224" style="fill:#fff;fill-rule:nonzero;"/></g></svg>