<?xml version="1.0" encoding="UTF-8" standalone="no"?><!DOCTYPE svg PUBLIC "-//W3C//DTD SVG 1.1//EN" "http://www.w3.org/Graphics/SVG/1.1/DTD/svg11.dtd"><svg width="100%" height="100%" viewBox="0 0 12 15" version="1.1" xmlns="http://www.w3.org/2000/svg" xmlns:xlink="http://www.w3.org/1999/xlink" xml:space="preserve" xmlns:serif="http://www.serif.com/" style="fill-rule:evenodd;clip-rule:evenodd;stroke-linejoin:round;stroke-miterlimit:2;"><g><path d="M10.257,4.791l-2.449,-0l-0.245,0.253c-0.117,0.12 -0.24,0.246 -0.357,0.365c-0.389,-0.243 -0.843,-0.377 -1.311,-0.377c-0.47,-0 -0.923,0.134 -1.312,0.377c-0.117,-0.119 -0.241,-0.245 -0.356,-0.365l-0.246,-0.253l-2.449,-0l-0.25,0.314c-0.827,1.038 -1.282,2.341 -1.282,3.67c0,3.25 2.644,5.895 5.895,5.895c3.249,-0 5.894,-2.645 5.894,-5.895c-0,-1.329 -0.455,-2.632 -1.281,-3.67l-0.251,-0.314Zm-0.402,0.834c0.689,0.864 1.099,1.959 1.099,3.15c-0,2.794 -2.265,5.06 -5.059,5.06c-2.796,-0 -5.061,-2.266 -5.061,-5.06c-0,-1.191 0.412,-2.286 1.1,-3.15l1.694,-0c0.413,0.425 0.917,0.932 0.917,0.932l0.01,-0c0.298,-0.418 0.787,-0.691 1.34,-0.691c0.552,-0 1.041,0.273 1.339,0.691l0.01,-0c-0,-0 0.504,-0.507 0.916,-0.932l1.695,-0Z" style="fill:#fff;fill-rule:nonzero;"/><path d="M9.644,4.791l-1.108,-0l0,-1.257c0,-1.337 -1.186,-2.426 -2.642,-2.426c-1.456,-0 -2.641,1.089 -2.641,2.426l0,1.257l-1.108,-0l0,-1.257c0,-1.949 1.681,-3.534 3.749,-3.534c2.068,0 3.75,1.585 3.75,3.534l0,1.257Z" style="fill:#fff;fill-rule:nonzero;"/><path d="M10.257,4.783l-2.449,0l-0.245,0.253c-0.117,0.12 -0.24,0.246 -0.357,0.365c-0.389,-0.243 -0.843,-0.376 -1.311,-0.376c-0.47,0 -0.923,0.133 -1.312,0.376c-0.117,-0.119 -0.241,-0.245 -0.356,-0.365l-0.246,-0.253l-2.449,0l-0.25,0.314c-0.827,1.038 -1.282,2.341 -1.282,3.67c0,0.611 0.094,1.214 0.278,1.792l0.185,0.581l3.767,0l0.248,-0.267c0.37,-0.4 0.873,-0.62 1.417,-0.62c0.543,0 1.046,0.22 1.416,0.62l0.248,0.267l3.767,0l0.184,-0.581c0.185,-0.578 0.279,-1.181 0.279,-1.792c-0,-1.329 -0.455,-2.632 -1.281,-3.67l-0.251,-0.314Zm-0.402,0.835c0.689,0.863 1.099,1.958 1.099,3.149c-0,0.537 -0.084,1.054 -0.238,1.538l-2.792,0c-0.507,-0.545 -1.227,-0.886 -2.029,-0.886c-0.803,0 -1.524,0.341 -2.029,0.886l-2.793,0c-0.155,-0.484 -0.239,-1.001 -0.239,-1.538c-0,-1.191 0.412,-2.286 1.1,-3.149l1.694,0c0.413,0.424 0.917,0.931 0.917,0.931l0.01,0c0.298,-0.418 0.787,-0.691 1.34,-0.691c0.552,0 1.041,0.273 1.339,0.691l0.01,0c-0,0 0.504,-0.507 0.916,-0.931l1.695,0Z" style="fill:#fff;fill-rule:nonzero;"/><path d="M5.895,11.916c-0.291,0 -0.526,-0.235 -0.526,-0.526c-0,-0.29 0.235,-0.525 0.526,-0.525c0.29,0 0.525,0.235 0.525,0.525c-0,0.291 -0.235,0.526 -0.525,0.526m-0,-1.354c-0.458,0 -0.829,0.371 -0.829,0.828c-0,0.458 0.371,0.829 0.829,0.829c0.457,0 0.828,-0.371 0.828,-0.829c-0,-0.457 -0.371,-0.828 -0.828,-0.828" style="fill:#fff;fill-rule:nonzero;"/><path d="M5.947,13.578l-0.104,-0c-0.141,-0 -0.254,-0.115 -0.254,-0.255l-0,-1.153c-0,-0.14 0.112,-0.254 0.253,-0.254l0.104,-0c0.14,-0 0.255,0.114 0.255,0.254l0,1.153c0,0.14 -0.115,0.255 -0.255,0.255" style="fill:#fff;fill-rule:nonzero;"/><path d="M2.756,6.625c0,0.243 -0.197,0.439 -0.439,0.439c-0.244,0 -0.441,-0.196 -0.441,-0.439c0,-0.243 0.197,-0.439 0.441,-0.439c0.242,0 0.439,0.196 0.439,0.439" style="fill:#fff;fill-rule:nonzero;"/><path d="M9.912,6.625c0,0.243 -0.197,0.439 -0.44,0.439c-0.243,0 -0.44,-0.196 -0.44,-0.439c0,-0.243 0.197,-0.439 0.44,-0.439c0.243,0 0.44,0.196 0.44,0.439" style="fill:#fff;fill-rule:nonzero;"/><path d="M2.395,9.298c0,0.244 -0.197,0.44 -0.439,0.44c-0.244,-0 -0.441,-0.196 -0.441,-0.44c0,-0.243 0.197,-0.439 0.441,-0.439c0.242,-0 0.439,0.196 0.439,0.439" style="fill:#fff;fill-rule:nonzero;"/><path d="M10.274,9.298c-0,0.244 -0.198,0.44 -0.44,0.44c-0.243,-0 -0.441,-0.196 -0.441,-0.44c-0,-0.243 0.198,-0.439 0.441,-0.439c0.242,-0 0.44,0.196 0.44,0.439" style="fill:#fff;fill-rule:nonzero;"/></g></svg>