<?xml version="1.0" encoding="UTF-8" standalone="no"?><!DOCTYPE svg PUBLIC "-//W3C//DTD SVG 1.1//EN" "http://www.w3.org/Graphics/SVG/1.1/DTD/svg11.dtd"><svg width="100%" height="100%" viewBox="0 0 17 23" version="1.1" xmlns="http://www.w3.org/2000/svg" xmlns:xlink="http://www.w3.org/1999/xlink" xml:space="preserve" xmlns:serif="http://www.serif.com/" style="fill-rule:evenodd;clip-rule:evenodd;stroke-linejoin:round;stroke-miterlimit:2;"><g><path d="M13.492,21.43l-9.446,-0l-0.909,-2.892l3.626,-0.497l-0.018,-0.014c0.151,-0.011 0.296,-0.056 0.408,-0.162l1.052,-0.989l2.391,-0.295l2.084,0.848c0.173,0.07 0.369,0.067 0.539,-0.012l0.641,-0.295l0.24,3.148l-0.608,1.16Zm-7.262,-8.227l1.058,2.779c0,0.001 0.001,0.001 0.001,0.003l-0.728,0.683l-1.765,-0.783c-0.235,-0.101 -0.514,-0.064 -0.709,0.102l-1.837,1.569l-0.864,-0.651l-0.067,-2.64l4.911,-1.062Zm4.209,-1.594c1.278,-1.565 3.056,-3.727 4.075,-4.941c0.17,0.732 0.382,1.678 0.381,1.897c-0.02,0.27 -0.529,4.109 -0.931,7.121l-1.045,0.481l-0.739,-0.3c-0.619,-0.392 -1.344,-0.833 -1.453,-0.821l-0.003,0.001l-0.285,-3.438Zm5.189,-5.888c-0.063,-0.259 -0.111,-0.459 -0.129,-0.546c-0.044,-0.22 -0.21,-0.399 -0.431,-0.471c-0.223,-0.07 -0.466,-0.025 -0.641,0.123c-0.319,0.271 -3.724,4.427 -5.172,6.202c-0.101,0.124 -0.151,0.279 -0.137,0.436l0.331,3.995c-0.002,0.001 -0.005,0.001 -0.007,0.002l-0.925,0.114c-0.002,-0.008 -0.001,-0.017 -0.003,-0.025l-1.255,-3.293c-0.112,-0.296 -0.444,-0.466 -0.757,-0.395l-5.993,1.295c-0.303,0.066 -0.516,0.328 -0.509,0.626l0.088,3.444c0,0.01 0.005,0.018 0.006,0.03c0.004,0.041 0.016,0.08 0.029,0.12c0.01,0.039 0.018,0.076 0.037,0.112c0.017,0.032 0.041,0.058 0.064,0.088c0.028,0.037 0.054,0.072 0.091,0.102c0.008,0.008 0.011,0.018 0.021,0.025l1.536,1.159c0.002,0.001 0.007,0.001 0.009,0.002c0.002,0.008 0,0.016 0.002,0.023l1.052,3.347c0.084,0.264 0.338,0.444 0.626,0.444l10.335,-0c0.246,-0 0.472,-0.132 0.582,-0.344l0.87,-1.659c0.053,-0.102 0.076,-0.214 0.068,-0.327l-0.276,-3.617c0.133,-0.99 1.026,-7.656 1.058,-8.079c0.022,-0.316 -0.115,-1.03 -0.57,-2.933" style="fill:white;fill-rule:nonzero;"/><path d="M13.093,1.732l0.11,0.218c-0.84,1.105 -1.773,2.277 -2.348,2.943c-0.51,-0.826 -1.38,-2.271 -2.138,-3.537l4.376,0.376Zm-2.875,4.555c0.103,0.134 0.257,0.223 0.428,0.248c0.033,0.005 0.066,0.007 0.099,0.007c0.14,0 0.275,-0.041 0.388,-0.121c0.61,-0.43 2.722,-3.201 3.357,-4.039c0.139,-0.186 0.162,-0.432 0.058,-0.639l-0.44,-0.874c-0.099,-0.198 -0.301,-0.331 -0.529,-0.351l-5.991,-0.515c-0.243,-0.021 -0.475,0.09 -0.608,0.285c-0.131,0.196 -0.137,0.445 -0.017,0.647c0.49,0.824 2.952,4.954 3.255,5.352" style="fill:white;fill-rule:nonzero;"/><path d="M1.989,1.539l2.672,-0.233l0.539,5.731l-3.725,2.491l0.514,-7.989Zm-1.249,9.868c0.131,0 0.263,-0.038 0.373,-0.112l5.144,-3.44c0.192,-0.128 0.298,-0.345 0.278,-0.569l-0.632,-6.716c-0.015,-0.166 -0.099,-0.318 -0.232,-0.424c-0.133,-0.107 -0.308,-0.16 -0.477,-0.143l-3.882,0.339c-0.32,0.028 -0.572,0.276 -0.592,0.584l-0.632,9.817c-0.015,0.239 0.113,0.466 0.333,0.584c0.099,0.054 0.209,0.08 0.319,0.08" style="fill:white;fill-rule:nonzero;"/></g></svg>