<?xml version="1.0" encoding="UTF-8" standalone="no"?><!DOCTYPE svg PUBLIC "-//W3C//DTD SVG 1.1//EN" "http://www.w3.org/Graphics/SVG/1.1/DTD/svg11.dtd"><svg width="100%" height="100%" viewBox="0 0 10 10" version="1.1" xmlns="http://www.w3.org/2000/svg" xmlns:xlink="http://www.w3.org/1999/xlink" xml:space="preserve" xmlns:serif="http://www.serif.com/" style="fill-rule:evenodd;clip-rule:evenodd;stroke-linejoin:round;stroke-miterlimit:2;"><g><path d="M8.561,-0l-0.001,-0c-1.251,-0 -2.502,0.077 -3.752,0.128c-0.987,0.039 -1.973,0.093 -2.96,0.138c-0.808,0.037 -0.966,0.175 -1.273,0.912c-0.281,0.676 -0.221,1.331 -0.03,2.009c0.074,0.262 0.074,0.262 0.403,0.589c-0.077,0.266 -0.167,0.512 -0.22,0.766c-0.518,2.516 -0.557,2.808 -0.728,5.379l3.623,-0c0.04,-2.775 0.058,-3.29 -0.159,-6.083l2.252,-0c-0.107,2.616 -0.138,2.997 -0.157,2.997c-0.008,-0 -0.013,-0.064 -0.021,-0.064c-0.018,-0.001 -0.051,0.394 -0.164,3.15l4.371,-0c-0.044,-0.722 -0.05,-0.665 -0.176,-1.483c-0.161,-1.039 -0.116,-0.544 -0.212,-1.591c-0.084,-0.914 -0.199,-1.825 -0.294,-2.737c-0.009,-0.089 -0.006,-0.201 0.04,-0.268c0.53,-0.778 0.728,-1.647 0.718,-2.573c-0.008,-0.809 -0.501,-1.269 -1.26,-1.269m-0,0.437c0.54,-0 0.817,0.282 0.823,0.836c0.009,0.915 -0.201,1.674 -0.643,2.322c-0.123,0.181 -0.13,0.405 -0.114,0.56c0.038,0.353 0.077,0.706 0.117,1.059c0.062,0.548 0.126,1.116 0.178,1.673c0.065,0.71 0.067,0.728 0.112,0.992c0.021,0.118 0.051,0.291 0.102,0.626l0.057,0.359c0.046,0.293 0.066,0.419 0.084,0.62l-3.447,-0c0.054,-1.283 0.092,-2.102 0.116,-2.446c0.065,-0.157 0.078,-0.392 0.095,-0.696c0.026,-0.466 0.063,-1.278 0.112,-2.486l0.019,-0.455l-3.181,-0l0.037,0.471c0.203,2.621 0.199,3.239 0.164,5.612l-2.724,-0c0.146,-2.141 0.206,-2.509 0.689,-4.854c0.031,-0.15 0.08,-0.306 0.131,-0.472c0.027,-0.085 0.054,-0.172 0.08,-0.26l0.073,-0.25l-0.185,-0.183c-0.248,-0.245 -0.248,-0.245 -0.29,-0.396c-0.199,-0.708 -0.195,-1.223 0.013,-1.723c0.25,-0.602 0.267,-0.614 0.889,-0.643c0.376,-0.017 0.752,-0.035 1.128,-0.054c0.61,-0.03 1.22,-0.06 1.829,-0.084c0.326,-0.013 0.651,-0.028 0.976,-0.043c0.906,-0.041 1.843,-0.084 2.759,-0.085l0.001,-0Z" style="fill:#4a82a3;fill-rule:nonzero;"/><path d="M0.531,2.378l2.634,-0.144l3.53,0.331l2.932,-0.327c-0,-0 -0.66,1.532 -0.618,1.616c0.042,0.084 0.016,1.867 0.016,1.867l-3.15,-1.329l-0.009,-0.706l-2.413,-0.008l-0.057,3.006l-2.469,-2.081l0.072,-0.938l-0.364,-0.51l-0.104,-0.777Z" style="fill:#4a82a3;fill-rule:nonzero;"/><path d="M0.667,5.411c0.105,0.063 0.446,1.239 0.402,1.407c-0.045,0.168 -0.969,2.184 -0.969,2.184l0.567,-3.591Z" style="fill:#4a82a3;fill-rule:nonzero;"/><path d="M8.733,9.714c0,-0.084 0.546,-1.869 0.546,-1.806c0,0.063 0.43,1.89 0.43,1.89l-0.976,-0.084Z" style="fill:#4a82a3;fill-rule:nonzero;"/><path d="M5.693,7.603c0.255,0.347 1.187,2.316 1.187,2.316l-1.474,0l0.287,-2.316Z" style="fill:#4a82a3;fill-rule:nonzero;"/><path d="M2.17,9.769l1.292,-1.533l0,1.533l-1.292,-0Z" style="fill:#4a82a3;fill-rule:nonzero;"/><path d="M0.641,1.426c0.186,0.042 2.035,-1.009 2.035,-1.009l-1.594,-0l-0.441,1.009Z" style="fill:#4a82a3;fill-rule:nonzero;"/><path d="M8.281,0.655l1.277,1.41l0.149,-0.628l-0.08,-0.782l-0.506,-0.421l-0.62,-0.233l-3.961,0.303l1.922,0.649" style="fill:#4a82a3;fill-rule:nonzero;"/><path d="M5.852,4.487c0.157,0.157 0.292,1.773 0.292,1.773l-0.427,0.773l0.135,-2.546Z" style="fill:#4a82a3;fill-rule:nonzero;"/><path d="M3.396,6.078c-0,-0 -0.506,0.696 -0.394,0.955c0.112,0.259 0.46,1.061 0.46,1.061l-0.066,-2.016Z" style="fill:#4a82a3;fill-rule:nonzero;"/><path d="M5.52,6.886c0.006,-0.055 0.161,-2.189 0.161,-2.189c-0,0 0.146,1.398 0.152,1.428c0.006,0.03 -0.036,1.105 -0.061,1.081c-0.024,-0.024 -0.252,-0.32 -0.252,-0.32" style="fill:#4a82a3;fill-rule:nonzero;"/></g></svg>