<?xml version="1.0" encoding="UTF-8" standalone="no"?><!DOCTYPE svg PUBLIC "-//W3C//DTD SVG 1.1//EN" "http://www.w3.org/Graphics/SVG/1.1/DTD/svg11.dtd"><svg width="100%" height="100%" viewBox="0 0 12 10" version="1.1" xmlns="http://www.w3.org/2000/svg" xmlns:xlink="http://www.w3.org/1999/xlink" xml:space="preserve" xmlns:serif="http://www.serif.com/" style="fill-rule:evenodd;clip-rule:evenodd;stroke-linejoin:round;stroke-miterlimit:2;"><g><path d="M5.949,-0c-0.132,-0 -0.263,0.019 -0.388,0.058l-5.093,1.572l10.962,-0l-5.093,-1.572c-0.125,-0.039 -0.257,-0.058 -0.388,-0.058m-0,0.328c0.1,-0 0.198,0.015 0.291,0.043l3.014,0.931l-6.61,-0l3.014,-0.931c0.093,-0.028 0.191,-0.043 0.291,-0.043" style="fill:white;fill-rule:nonzero;"/><path d="M11.43,1.63l-10.962,0l-0,2.112l10.962,0l-0,-2.112Zm-0.438,1.674l-10.087,0l-0,-1.237l10.087,0l-0,1.237Z" style="fill:white;fill-rule:nonzero;"/><path d="M10.966,8.592l-10.035,-0l-0.931,1.33l11.897,-0l-0.931,-1.33Zm-0.228,0.437l0.319,0.455l-10.216,-0l0.318,-0.455l9.579,-0Z" style="fill:white;fill-rule:nonzero;"/><rect x="0.602" y="2.467" width="10.697" height="0.437" style="fill:white;"/><path d="M2.723,3.742l-2.255,-0l0.266,0.477c0.047,0.079 0.117,0.088 0.197,0.101l-0,4.272l1.328,-0l-0,-4.272c0.08,-0.013 0.142,-0.013 0.197,-0.101l0.267,-0.477Zm-0.901,0.437l-0,3.975l-0.454,-0l-0,-3.834l-0.004,-0.141l0.458,-0Z" style="fill:white;fill-rule:nonzero;"/><path d="M0.943,3.958l-0,1.219c-0,-0 1.285,1.12 1.285,1.038l-0,-2.257l-1.285,-0Z" style="fill:white;fill-rule:nonzero;"/><path d="M11.428,3.742l-2.255,-0l0.265,0.477c0.048,0.079 0.118,0.088 0.197,0.101l-0,4.272l1.329,-0l-0,-4.272c0.079,-0.013 0.142,-0.013 0.198,-0.101l0.266,-0.477Zm-0.901,0.437l-0,3.975l-0.454,-0l-0,-3.834l-0.004,-0.141l0.458,-0Z" style="fill:white;fill-rule:nonzero;"/><path d="M9.647,3.958l0,1.219c0,-0 1.285,1.12 1.285,1.038l0,-2.257l-1.285,-0Z" style="fill:white;fill-rule:nonzero;"/><path d="M8.526,3.742l-2.255,-0l0.266,0.477c0.047,0.079 0.117,0.088 0.197,0.101l-0,4.272l1.328,-0l-0,-4.272c0.08,-0.013 0.142,-0.013 0.198,-0.101l0.266,-0.477Zm-0.901,0.437l-0,3.975l-0.454,-0l-0,-3.834l-0.003,-0.141l0.457,-0Z" style="fill:white;fill-rule:nonzero;"/><path d="M6.746,3.958l0,1.219c0,-0 1.285,1.12 1.285,1.038l0,-2.257l-1.285,-0Z" style="fill:white;fill-rule:nonzero;"/><path d="M5.624,3.742l-2.255,-0l0.266,0.477c0.047,0.079 0.117,0.088 0.197,0.101l0,4.272l1.328,-0l0,-4.272c0.08,-0.013 0.142,-0.013 0.198,-0.101l0.266,-0.477Zm-0.901,0.437l0,3.975l-0.454,-0l0,-3.834l-0.004,-0.141l0.458,-0Z" style="fill:white;fill-rule:nonzero;"/><path d="M3.844,3.958l0,1.219c0,-0 1.285,1.12 1.285,1.038l0,-2.257l-1.285,-0Z" style="fill:white;fill-rule:nonzero;"/><path d="M1.466,1.63l4.374,-1.026l3.697,0.593l-3.559,-1.106l-0.58,0.148l-3.181,1l-0.751,0.391Z" style="fill:white;fill-rule:nonzero;"/></g></svg>