<?xml version="1.0" encoding="UTF-8" standalone="no"?><!DOCTYPE svg PUBLIC "-//W3C//DTD SVG 1.1//EN" "http://www.w3.org/Graphics/SVG/1.1/DTD/svg11.dtd"><svg width="100%" height="100%" viewBox="0 0 15 10" version="1.1" xmlns="http://www.w3.org/2000/svg" xmlns:xlink="http://www.w3.org/1999/xlink" xml:space="preserve" xmlns:serif="http://www.serif.com/" style="fill-rule:evenodd;clip-rule:evenodd;stroke-linejoin:round;stroke-miterlimit:2;"><g><path d="M6.265,2.625l-0.473,7.296l3.298,0l-0.473,-7.296l-2.352,0Zm0.18,0.219l1.992,0l0.444,6.859l-2.881,0l0.445,-6.859Z" style="fill:white;fill-rule:nonzero;"/><path d="M9.224,0.875l-3.566,0l-0,1.75l3.566,0l-0,-1.75Zm-0.387,1.312l-2.792,0l-0,-0.875l2.792,0l-0,0.875Z" style="fill:white;fill-rule:nonzero;"/><rect x="5.262" y="0" width="4.359" height="0.874" style="fill:white;"/><path d="M11.238,2.625l-2.635,-0l0.122,1.823l2.513,-0l-0,-1.823Zm-0.387,0.437l-0,0.949l-1.767,-0l-0.063,-0.949l1.83,-0Z" style="fill:white;fill-rule:nonzero;"/><path d="M9.211,2.625l1.097,1.823l-1.583,-0l-0.122,-1.823l0.608,-0Z" style="fill:white;fill-rule:nonzero;"/><path d="M12.452,4.447l-3.728,0l0.122,1.823l3.606,0l0,-1.823Zm-0.387,0.437l0,0.949l-2.861,0l-0.062,-0.949l2.923,0Z" style="fill:white;fill-rule:nonzero;"/><path d="M9.332,4.447l1.097,1.823l-1.583,0l-0.121,-1.823l0.607,0Z" style="fill:white;fill-rule:nonzero;"/><path d="M13.667,6.27l-4.821,0l0.121,1.823l4.7,0l0,-1.823Zm-0.387,0.437l0,0.948l-3.953,0l-0.063,-0.948l4.016,0Z" style="fill:white;fill-rule:nonzero;"/><path d="M9.453,6.27l1.097,1.823l-1.583,0l-0.121,-1.823l0.607,0Z" style="fill:white;fill-rule:nonzero;"/><path d="M8.968,8.099l0.122,1.823l5.792,-0l-0,-1.823l-5.914,-0Zm0.417,0.437l5.11,-0l-0,0.948l-5.046,-0l-0.064,-0.948Z" style="fill:white;fill-rule:nonzero;"/><path d="M8.968,8.099l0.122,1.823l1.583,-0l-1.098,-1.823l-0.607,-0Z" style="fill:white;fill-rule:nonzero;"/><path d="M6.278,2.625l-2.635,-0l0,1.823l2.513,-0l0.122,-1.823Zm-0.417,0.437l-0.064,0.949l-1.767,-0l0,-0.949l1.831,-0Z" style="fill:white;fill-rule:nonzero;"/><path d="M5.671,2.625l-1.097,1.823l1.583,-0l0.121,-1.823l-0.607,-0Z" style="fill:white;fill-rule:nonzero;"/><path d="M6.157,4.447l-3.728,0l-0,1.823l3.607,0l0.121,-1.823Zm-0.417,0.437l-0.063,0.949l-2.861,0l-0,-0.949l2.924,0Z" style="fill:white;fill-rule:nonzero;"/><path d="M5.549,4.447l-1.097,1.823l1.583,0l0.121,-1.823l-0.607,0Z" style="fill:white;fill-rule:nonzero;"/><path d="M6.035,6.27l-4.821,0l0,1.823l4.699,0l0.122,-1.823Zm-0.417,0.437l-0.064,0.948l-3.953,0l0,-0.948l4.017,0Z" style="fill:white;fill-rule:nonzero;"/><path d="M5.428,6.27l-1.097,1.823l1.583,0l0.121,-1.823l-0.607,0Z" style="fill:white;fill-rule:nonzero;"/><path d="M0,8.099l0,1.823l5.792,-0l0.122,-1.823l-5.914,-0Zm0.387,0.437l5.109,-0l-0.063,0.948l-5.046,-0l-0,-0.948Z" style="fill:white;fill-rule:nonzero;"/><path d="M5.306,8.099l-1.097,1.823l1.583,-0l0.121,-1.823l-0.607,-0Z" style="fill:white;fill-rule:nonzero;"/></g></svg>