<?xml version="1.0" encoding="UTF-8" standalone="no"?><!DOCTYPE svg PUBLIC "-//W3C//DTD SVG 1.1//EN" "http://www.w3.org/Graphics/SVG/1.1/DTD/svg11.dtd"><svg width="100%" height="100%" viewBox="0 0 20 20" version="1.1" xmlns="http://www.w3.org/2000/svg" xmlns:xlink="http://www.w3.org/1999/xlink" xml:space="preserve" xmlns:serif="http://www.serif.com/" style="fill-rule:evenodd;clip-rule:evenodd;stroke-linejoin:round;stroke-miterlimit:2;"><g><path d="M9.921,0.251c-5.341,0 -9.67,4.33 -9.67,9.67c0,5.341 4.329,9.671 9.67,9.671c5.34,0 9.67,-4.33 9.67,-9.671c-0,-5.34 -4.33,-9.67 -9.67,-9.67m-0,0.341c5.144,0 9.33,4.185 9.33,9.329c-0,5.144 -4.186,9.329 -9.33,9.329c-5.144,0 -9.329,-4.185 -9.329,-9.329c0,-5.144 4.185,-9.329 9.329,-9.329" style="fill:#403f41;fill-rule:nonzero;"/><path d="M9.921,0.843c-5.006,0 -9.079,4.073 -9.079,9.078c0,5.006 4.073,9.078 9.079,9.078c5.006,0 9.079,-4.072 9.079,-9.078c0,-5.005 -4.073,-9.078 -9.079,-9.078m0,19c-5.471,0 -9.921,-4.451 -9.921,-9.922c0,-5.47 4.45,-9.921 9.921,-9.921c5.47,0 9.92,4.451 9.92,9.921c-0,5.471 -4.45,9.922 -9.92,9.922" style="fill:#403f41;fill-rule:nonzero;"/><path d="M9.921,2.1c-4.32,-0 -7.821,3.502 -7.821,7.822c0,4.32 3.501,7.822 7.821,7.822c4.32,-0 7.822,-3.502 7.822,-7.822c0,-4.32 -3.502,-7.822 -7.822,-7.822m0,0.331c4.13,-0 7.491,3.36 7.491,7.491c0,4.13 -3.361,7.49 -7.491,7.49c-4.13,-0 -7.49,-3.36 -7.49,-7.49c0,-4.131 3.36,-7.491 7.49,-7.491" style="fill:#403f41;fill-rule:nonzero;"/><path d="M9.921,2.681c-3.992,0 -7.239,3.248 -7.239,7.24c0,3.992 3.247,7.24 7.239,7.24c3.992,0 7.24,-3.248 7.24,-7.24c-0,-3.992 -3.248,-7.24 -7.24,-7.24m-0,15.312c-4.451,0 -8.072,-3.621 -8.072,-8.072c0,-4.451 3.621,-8.072 8.072,-8.072c4.452,0 8.073,3.621 8.073,8.072c0,4.451 -3.621,8.072 -8.073,8.072" style="fill:#403f41;fill-rule:nonzero;"/><path d="M9.921,2.092l0,-1.596l1.542,0.269l-1.542,1.327Z" style="fill:#403f41;fill-rule:nonzero;"/><path d="M9.921,17.803l0,1.596l-1.542,-0.27l1.542,-1.326Z" style="fill:#403f41;fill-rule:nonzero;"/><path d="M5.994,3.144l-0.798,-1.382l1.47,-0.538l-0.672,1.92Z" style="fill:#403f41;fill-rule:nonzero;"/><path d="M13.848,16.75l0.799,1.383l-1.471,0.537l0.672,-1.92Z" style="fill:#403f41;fill-rule:nonzero;"/><path d="M3.118,6.019l-1.382,-0.798l1.004,-1.201l0.378,1.999Z" style="fill:#403f41;fill-rule:nonzero;"/><path d="M16.724,13.875l1.382,0.798l-1.004,1.201l-0.378,-1.999Z" style="fill:#403f41;fill-rule:nonzero;"/><path d="M2.065,9.947l-1.596,0l0.269,-1.542l1.327,1.542Z" style="fill:#403f41;fill-rule:nonzero;"/><path d="M17.777,9.948l1.596,-0l-0.27,1.542l-1.326,-1.542Z" style="fill:#403f41;fill-rule:nonzero;"/><path d="M3.118,13.874l-1.382,0.799l-0.538,-1.471l1.92,0.672Z" style="fill:#403f41;fill-rule:nonzero;"/><path d="M16.724,6.02l1.383,-0.798l0.537,1.47l-1.92,-0.672Z" style="fill:#403f41;fill-rule:nonzero;"/><path d="M5.993,16.75l-0.798,1.382l-1.201,-1.004l1.999,-0.378Z" style="fill:#403f41;fill-rule:nonzero;"/><path d="M13.849,3.144l0.798,-1.382l1.201,1.004l-1.999,0.378Z" style="fill:#403f41;fill-rule:nonzero;"/></g></svg>