<?xml version="1.0" encoding="UTF-8" standalone="no"?><!DOCTYPE svg PUBLIC "-//W3C//DTD SVG 1.1//EN" "http://www.w3.org/Graphics/SVG/1.1/DTD/svg11.dtd"><svg width="100%" height="100%" viewBox="0 0 18 23" version="1.1" xmlns="http://www.w3.org/2000/svg" xmlns:xlink="http://www.w3.org/1999/xlink" xml:space="preserve" xmlns:serif="http://www.serif.com/" style="fill-rule:evenodd;clip-rule:evenodd;stroke-linejoin:round;stroke-miterlimit:2;"><g><path d="M4.264,15.665c-0.237,0.61 -2.514,5.306 -2.514,5.306l1.945,-1.315l1.423,-2.77c-0,0 6.07,-11.363 9.533,-13.945c-0,0 -2.324,0.657 -10.387,12.724" style="fill:white;fill-rule:nonzero;"/><path d="M15.15,22.677l-14.632,0c-0.286,0 -0.518,-0.229 -0.518,-0.512c0,-0.284 0.232,-0.513 0.518,-0.513l14.632,0c0.286,0 0.518,0.229 0.518,0.513c0,0.283 -0.232,0.512 -0.518,0.512" style="fill:white;fill-rule:nonzero;"/><path d="M3.211,11.533c-0.018,1.448 0.153,2.524 0.304,3.476c0.21,1.313 0.388,2.436 -0.072,3.885c0.141,-0.216 0.252,-0.457 0.326,-0.733l0.09,-0.334l0.347,-0.042c1.311,-0.159 6.412,-2.031 7.625,-3.814l-5.529,0.339l4.184,-1.27c0.804,-0.243 1.879,-0.859 2.581,-1.618l-2.763,-1.103l4.31,-1.753c1.057,-2.747 1.476,-5.875 1.334,-7.272c-4.49,1.478 -8.034,4.211 -8.526,6.622l-0.599,2.938l-0.47,-3.316c-0.511,0.571 -1.213,1.376 -1.87,2.189c0.118,0.75 0.191,1.188 0.191,1.19l0.435,2.614l-1.568,-2.558c-0.219,0.323 -0.3,0.486 -0.33,0.56m-2.784,10.758l1.11,-1.794c1.434,-2.321 1.254,-3.453 0.956,-5.328c-0.161,-1.01 -0.343,-2.154 -0.316,-3.73l0.016,-0.119c0.058,-0.218 0.219,-0.596 0.972,-1.583l0.46,-0.603l0.005,0.009c1.251,-1.558 2.686,-3.097 2.701,-3.113l0.741,-0.793l0.099,0.7c1.506,-2.322 4.898,-4.552 9.018,-5.794l0.474,-0.143l0.165,0.463c0.475,1.335 0.007,5.332 -1.33,8.682l-0.081,0.203l-2.369,0.962l1.612,0.643l-0.331,0.519c-0.337,0.529 -0.817,1.004 -1.342,1.401l0.197,-0.012l-0.07,0.608c-0.313,2.709 -6.693,4.855 -8.443,5.267c-0.436,1.195 -1.395,1.851 -2.425,2.467l-1.819,1.088Z" style="fill:white;fill-rule:nonzero;"/></g></svg>