<?xml version="1.0" encoding="UTF-8" standalone="no"?><!DOCTYPE svg PUBLIC "-//W3C//DTD SVG 1.1//EN" "http://www.w3.org/Graphics/SVG/1.1/DTD/svg11.dtd"><svg width="100%" height="100%" viewBox="0 0 19 23" version="1.1" xmlns="http://www.w3.org/2000/svg" xmlns:xlink="http://www.w3.org/1999/xlink" xml:space="preserve" xmlns:serif="http://www.serif.com/" style="fill-rule:evenodd;clip-rule:evenodd;stroke-linejoin:round;stroke-miterlimit:2;"><g><path d="M9.212,2.999c-0.588,-0 -0.998,0.813 -0.998,1.977c-0,1.57 0.631,2.701 1.005,3.157c0.353,-0.442 0.992,-1.576 0.992,-3.157c-0,-1.164 -0.411,-1.977 -0.999,-1.977m-0,6.385c-0.061,-0 -0.122,-0.009 -0.181,-0.029c-0.771,-0.256 -1.936,-2.134 -1.936,-4.379c-0,-1.834 0.85,-3.065 2.117,-3.065c1.267,-0 2.118,1.231 2.118,3.065c-0,2.245 -1.166,4.123 -1.937,4.379c-0.059,0.02 -0.12,0.029 -0.181,0.029m-1.956,12.207l3.913,-0l-1.134,-9.927c-0.018,-0.161 0.038,-0.321 0.154,-0.437c0.116,-0.117 0.269,-0.182 0.444,-0.166l6.673,0.483l-0,-2.177l-5.281,0.382c-0.218,0.023 -0.422,-0.093 -0.528,-0.275c-0.107,-0.184 -0.096,-0.411 0.03,-0.583c0.884,-1.215 1.198,-2.869 1.198,-3.915c-0,-2.866 -1.815,-3.888 -3.513,-3.888c-1.698,-0 -3.512,1.022 -3.512,3.888c-0,1.047 0.313,2.702 1.198,3.915c0.125,0.172 0.137,0.399 0.031,0.583c-0.107,0.182 -0.306,0.297 -0.529,0.275l-5.281,-0.382l-0,2.177l6.671,-0.483c0.171,-0.017 0.329,0.048 0.444,0.166c0.116,0.116 0.172,0.276 0.154,0.437l-1.132,9.927Zm4.538,1.088l-5.163,-0c-0.159,-0 -0.311,-0.066 -0.417,-0.181c-0.106,-0.115 -0.157,-0.269 -0.14,-0.422l1.127,-9.881l-6.6,0.477c-0.163,0.009 -0.309,-0.042 -0.422,-0.144c-0.114,-0.103 -0.179,-0.248 -0.179,-0.399l-0,-3.347c-0,-0.151 0.065,-0.296 0.179,-0.399c0.113,-0.102 0.259,-0.158 0.422,-0.144l4.822,0.348c-0.611,-1.234 -0.842,-2.609 -0.842,-3.611c-0,-3.437 2.326,-4.976 4.631,-4.976c2.305,-0 4.632,1.539 4.632,4.976c-0,1.002 -0.232,2.376 -0.843,3.611l4.823,-0.348c0.155,-0.014 0.307,0.041 0.422,0.144c0.115,0.103 0.179,0.248 0.179,0.399l-0,3.347c-0,0.151 -0.064,0.296 -0.179,0.399c-0.115,0.103 -0.266,0.155 -0.422,0.144l-6.602,-0.477l1.128,9.881c0.018,0.153 -0.033,0.307 -0.14,0.421c-0.106,0.116 -0.257,0.182 -0.416,0.182" style="fill:white;fill-rule:nonzero;"/><path d="M0.559,11.625l8.653,-1.088l-1.392,1.058l-7.261,0.534l0,-0.504Z" style="fill:white;fill-rule:nonzero;"/><path d="M17.865,11.625l-8.653,-1.088l0.825,1.151l7.828,0.441l0,-0.504Z" style="fill:white;fill-rule:nonzero;"/><path d="M9.212,10.537l-1.558,11.599l-1.024,-0l1.19,-10.54l1.392,-1.059Z" style="fill:white;fill-rule:nonzero;"/><path d="M11.759,21.829l-4.786,-2.725l-0.342,3.032l5.128,-0.307Z" style="fill:white;fill-rule:nonzero;"/><path d="M6.055,9.706c-0,-0 3.264,0.818 3.158,0.831c-0.107,0.014 -2.904,-0.923 -3.5,-4.934c-0.683,-0 0.342,4.103 0.342,4.103" style="fill:white;fill-rule:nonzero;"/><path d="M12.372,9.706c0,-0 -3.264,0.818 -3.158,0.831c0.107,0.014 2.888,-0.985 3.484,-4.996c0.683,-0 -0.326,4.165 -0.326,4.165" style="fill:white;fill-rule:nonzero;"/></g></svg>