<?xml version="1.0" encoding="UTF-8" standalone="no"?><!DOCTYPE svg PUBLIC "-//W3C//DTD SVG 1.1//EN" "http://www.w3.org/Graphics/SVG/1.1/DTD/svg11.dtd"><svg width="100%" height="100%" viewBox="0 0 17 23" version="1.1" xmlns="http://www.w3.org/2000/svg" xmlns:xlink="http://www.w3.org/1999/xlink" xml:space="preserve" xmlns:serif="http://www.serif.com/" style="fill-rule:evenodd;clip-rule:evenodd;stroke-linejoin:round;stroke-miterlimit:2;"><g><path d="M8.951,-0c-1.617,-0 -3.187,0.398 -4.716,1.097c-1.612,0.738 -2.95,1.818 -4.009,3.248c-0.277,0.373 -0.309,0.71 -0.045,1.067l6.117,6.777c0.116,0.116 0.247,0.218 0.384,0.338c2.341,-2.085 4.987,-3.588 7.958,-4.611c-0.041,-0.137 -0.071,-0.276 -0.122,-0.406c-0.138,-0.356 -0.28,-0.712 -0.42,-1.067l-0.295,-0.751l-0.74,-1.878l-0.39,-0.989c0.002,-0 0.004,-0.001 0.005,-0.001c-0.28,-0.726 -0.54,-1.485 -0.876,-2.209c-0.084,-0.182 -0.4,-0.31 -0.632,-0.363c-0.749,-0.171 -1.489,-0.252 -2.219,-0.252m0,1.143c0.643,-0 1.293,0.072 1.932,0.216c0.18,0.414 0.343,0.85 0.501,1.274c0.063,0.166 0.125,0.332 0.187,0.496c0.011,0.039 0.024,0.077 0.039,0.115l0.389,0.989l0.74,1.878l0.296,0.753l0.073,0.183l0.074,0.188c-2.392,0.938 -4.514,2.171 -6.44,3.74l-5.495,-6.087c0.919,-1.195 2.084,-2.12 3.464,-2.751c1.461,-0.669 2.848,-0.994 4.24,-0.994" style="fill:#3c857f;fill-rule:nonzero;"/><path d="M7.041,18.629c-0.367,-0 -0.618,0.246 -1.024,0.796c-0.521,0.707 -1.047,1.411 -1.53,2.143c-0.206,0.312 -0.308,0.693 -0.485,1.109l8.499,-0c-0.176,-0.469 -0.324,-0.866 -0.481,-1.286c-0.108,0.023 -0.21,0.033 -0.308,0.033c-0.508,-0 -0.905,-0.274 -1.277,-0.599c-0.408,-0.356 -0.781,-0.755 -1.207,-1.088c-0.394,-0.308 -0.812,-0.608 -1.264,-0.818c-0.403,-0.188 -0.687,-0.29 -0.923,-0.29m0.12,1.187c0.071,0.028 0.174,0.071 0.321,0.139c0.371,0.173 0.735,0.442 1.042,0.682c0.214,0.168 0.426,0.368 0.65,0.58c0.112,0.106 0.225,0.213 0.34,0.318l-3.62,-0c0.295,-0.419 0.602,-0.834 0.902,-1.241l0.14,-0.19c0.101,-0.137 0.173,-0.227 0.225,-0.288m0.107,-0.111l0.006,-0l-0.006,-0Z" style="fill:#3c857f;fill-rule:nonzero;"/><path d="M14.284,11.731c-0.352,-0.112 -0.689,-0.218 -1.026,-0.325c0.006,-0.041 0.011,-0.082 0.017,-0.123c0.428,-0.091 0.856,-0.182 1.364,-0.29c-0.127,0.264 -0.228,0.473 -0.355,0.738m1.815,0.636c-0.107,-0.153 -0.179,-0.33 -0.286,-0.483c-0.492,-0.706 -0.827,-1.448 -0.746,-2.347c0.029,-0.321 -0.095,-0.656 -0.168,-1.101c-2.934,0.987 -5.474,2.489 -7.789,4.463c2.066,1.74 0.938,3.415 -0.063,5.168c2.018,0.133 2.991,1.974 4.681,2.743c-0.76,-1.7 -0.005,-3.016 0.829,-4.256l0.537,-0.712c0.419,0.12 0.858,0.204 1.304,0.275c0.681,0.109 0.948,-0.203 0.964,-0.897c0.002,-0.093 -0.04,-0.241 0.003,-0.271c0.333,-0.229 0.397,-0.49 0.338,-0.902c-0.021,-0.143 0.165,-0.359 -0.022,-0.578c-0.026,-0.03 0.121,-0.292 0.236,-0.347c0.397,-0.189 0.409,-0.429 0.182,-0.755" style="fill:#3c857f;fill-rule:nonzero;"/><path d="M3.582,8.603c-0.138,-0 -0.277,-0.05 -0.387,-0.151c-0.232,-0.213 -0.247,-0.575 -0.034,-0.807c3.845,-4.18 8.776,-4.852 8.984,-4.879c0.313,-0.039 0.598,0.181 0.638,0.494c0.041,0.312 -0.18,0.599 -0.493,0.64c-0.047,0.006 -4.735,0.656 -8.287,4.518c-0.113,0.123 -0.267,0.185 -0.421,0.185" style="fill:#3c857f;fill-rule:nonzero;"/></g></svg>