<?xml version="1.0" encoding="UTF-8" standalone="no"?><!DOCTYPE svg PUBLIC "-//W3C//DTD SVG 1.1//EN" "http://www.w3.org/Graphics/SVG/1.1/DTD/svg11.dtd"><svg width="100%" height="100%" viewBox="0 0 18 18" version="1.1" xmlns="http://www.w3.org/2000/svg" xmlns:xlink="http://www.w3.org/1999/xlink" xml:space="preserve" xmlns:serif="http://www.serif.com/" style="fill-rule:evenodd;clip-rule:evenodd;stroke-linejoin:round;stroke-miterlimit:2;"><g><path d="M0,9.071l0,7.937l13.855,0l-0.548,-3.369l-3.087,-3.946l-3.769,0.566l-0.785,0.584l-0.655,0.883l-0.346,-1.026l0.648,-2.063l-0.962,-2.371l-4.336,-0.517l-0.015,3.322Zm0.904,-2.317l2.817,0.337l0.643,1.584l-0.553,1.757l-0.088,0.278l0.095,0.277l0.346,1.026l0.548,1.617l1.017,-1.373l0.576,-0.776l0.501,-0.371l3.032,-0.455l2.623,3.354l0.343,2.105l-11.945,0l0.045,-9.36Z" style="fill:#403f41;fill-rule:nonzero;"/><path d="M11.358,-0c-0.258,-0 -0.515,0.098 -0.713,0.293l-4.795,4.747c-0.398,0.394 -0.401,1.036 -0.007,1.433l1.966,1.986c0.198,0.2 0.459,0.3 0.72,0.3c0.257,-0 0.515,-0.097 0.713,-0.293l4.795,-4.747c0.398,-0.394 0.401,-1.035 0.007,-1.433l-1.966,-1.986c-0.198,-0.2 -0.459,-0.3 -0.72,-0.3m-0,0.894c0.023,-0 0.056,0.006 0.085,0.035l1.966,1.986c0.046,0.047 0.046,0.123 -0.001,0.169l-4.795,4.747c-0.023,0.023 -0.052,0.035 -0.084,0.035c-0.023,-0 -0.056,-0.006 -0.085,-0.036l-1.966,-1.985c-0.047,-0.047 -0.046,-0.123 0.001,-0.17l4.795,-4.747c0.023,-0.023 0.051,-0.034 0.084,-0.034" style="fill:#403f41;fill-rule:nonzero;"/><path d="M12.753,4.99l-2.228,2.205l3.962,4.002c0.198,0.2 0.459,0.3 0.72,0.3c0.258,-0 0.515,-0.098 0.713,-0.293l0.787,-0.78c0.398,-0.393 0.401,-1.035 0.008,-1.433l-3.962,-4.001Zm-0.006,1.264l3.333,3.366c0.023,0.023 0.034,0.052 0.034,0.085c-0,0.033 -0.012,0.061 -0.035,0.084l-0.788,0.78c-0.023,0.023 -0.051,0.035 -0.084,0.035c-0.023,-0 -0.056,-0.007 -0.085,-0.036l-3.333,-3.366l0.958,-0.948Z" style="fill:#403f41;fill-rule:nonzero;"/><path d="M8.203,0.822c-0.258,-0 -0.515,0.098 -0.713,0.293l-0.787,0.78c-0.398,0.394 -0.401,1.035 -0.008,1.433l0.438,0.442l2.228,-2.206l-0.438,-0.442c-0.198,-0.2 -0.459,-0.3 -0.72,-0.3" style="fill:#403f41;fill-rule:nonzero;"/></g></svg>