<?xml version="1.0" encoding="UTF-8" standalone="no"?><!DOCTYPE svg PUBLIC "-//W3C//DTD SVG 1.1//EN" "http://www.w3.org/Graphics/SVG/1.1/DTD/svg11.dtd"><svg width="100%" height="100%" viewBox="0 0 10 10" version="1.1" xmlns="http://www.w3.org/2000/svg" xmlns:xlink="http://www.w3.org/1999/xlink" xml:space="preserve" xmlns:serif="http://www.serif.com/" style="fill-rule:evenodd;clip-rule:evenodd;stroke-linejoin:round;stroke-miterlimit:2;"><g><path d="M4.961,2.276l-2.056,-2.276l0.158,3.062l-3.063,-0.156l2.275,2.055l-2.275,2.054l3.063,-0.156l-0.158,3.062l2.056,-2.276l2.055,2.276l-0.157,-3.062l3.062,0.156l-2.276,-2.054l2.276,-2.054l-0,-0.001l-3.062,0.156l0.157,-3.062l-2.055,2.276Zm1.502,-0.943l-0.114,2.239l2.24,-0.113l-1.665,1.502l1.665,1.503l-2.24,-0.115l0.114,2.24l-1.502,-1.665l-1.503,1.665l0.114,-2.24l-2.24,0.115l1.665,-1.503l-1.664,-1.502l2.239,0.113l-0.114,-2.239l1.503,1.665l1.502,-1.665Z" style="fill:#403f41;fill-rule:nonzero;"/><path d="M4.961,2.637l-0,2.324l1.643,-1.644l0.135,-2.651l-1.778,1.971Z" style="fill:#403f41;fill-rule:nonzero;"/><path d="M4.961,4.961c-0,-0 2.264,-0.054 2.324,-0c0.059,0.054 1.97,1.779 1.97,1.779l-2.651,-0.136l-1.643,-1.643Z" style="fill:#403f41;fill-rule:nonzero;"/><path d="M4.961,4.961l-0,2.324l-1.779,1.97l0.136,-2.651l1.643,-1.643Z" style="fill:#403f41;fill-rule:nonzero;"/><path d="M0.666,3.182l1.97,1.779l2.324,-0l-1.643,-1.644l-2.651,-0.135Z" style="fill:#403f41;fill-rule:nonzero;"/></g></svg>